<?xml version="1.0" encoding="UTF-8"?>
<svg version="1.1" xmlns="http://www.w3.org/2000/svg" width="337" height="435">
<path d="M0 0 C0.99 0.495 0.99 0.495 2 1 C2 10.9 2 20.8 2 31 C4.11171097 30.99787003 6.22342194 30.99574005 8.39912415 30.99354553 C32.26008792 30.97500398 56.11985998 31.06025381 79.98046875 31.18359375 C81.90720431 31.19347722 83.83393987 31.20336046 85.76067543 31.21324348 C93.75631124 31.25442261 101.75194393 31.29613818 109.74756908 31.33933926 C121.10825863 31.40069878 132.46895458 31.45859704 143.82968444 31.51199192 C151.89322378 31.5501618 159.95673818 31.59209265 168.02024347 31.63687855 C172.81353341 31.66340301 177.6068185 31.68826411 182.40013695 31.70907402 C186.87305584 31.72857258 191.34592518 31.75269465 195.81879997 31.78049088 C197.4615973 31.78987824 199.10440543 31.79754741 200.74721909 31.80341911 C202.97831851 31.81164661 205.20929725 31.82591076 207.44035339 31.84178162 C208.69055865 31.84823417 209.94076391 31.85468672 211.22885418 31.8613348 C214 32 214 32 215 33 C215.10010765 34.40466306 215.131061 35.81432243 215.13422108 37.22254467 C215.13867892 38.13900176 215.14313676 39.05545885 215.14772969 39.99968737 C215.14745315 41.52764554 215.14745315 41.52764554 215.14717102 43.08647156 C215.15084771 44.15958944 215.1545244 45.23270732 215.1583125 46.33834392 C215.1693998 49.96474376 215.17320179 53.591115 215.17700195 57.2175293 C215.18326312 59.80576673 215.1899096 62.39400325 215.19691467 64.98223877 C215.21671 72.77580222 215.22675328 80.56936702 215.23564246 88.36294934 C215.240024 92.03462367 215.2453915 95.70629656 215.25063133 99.37796974 C215.26765354 111.58927327 215.28214378 123.80057588 215.28938007 136.01188946 C215.29128996 139.18346343 215.29321028 142.35503739 215.29516602 145.52661133 C215.29564976 146.3148864 215.2961335 147.10316146 215.2966319 147.91532365 C215.30491723 160.66107074 215.33022429 173.40672351 215.36274669 186.15242948 C215.39588035 199.2448543 215.41383488 212.33723134 215.41702431 225.42969829 C215.41918457 232.77766654 215.42786082 240.12549763 215.45348549 247.47342491 C215.47756773 254.39515651 215.48097861 261.31663841 215.47072411 268.23840332 C215.47022978 270.77230969 215.4765195 273.30622837 215.49028015 275.84009743 C215.60614069 298.44946296 212.35354503 317.26542393 197 335 C193.85626161 337.97112048 190.53664579 340.51536095 187 343 C186.16855469 343.60585938 185.33710938 344.21171875 184.48046875 344.8359375 C159.24792749 362.1620303 122.13822426 363.75075723 92.6875 358.75 C90.09630018 358.2417088 87.56507637 357.64057583 85 357 C83.31970703 356.59974609 83.31970703 356.59974609 81.60546875 356.19140625 C62.63471571 351.03007683 44.94032432 340.15222429 34.8125 322.9375 C23.61466905 300.93849151 24.70215599 276.6521249 24.79721212 252.61115861 C24.80989531 248.85029237 24.81090359 245.08942132 24.81326294 241.32853699 C24.81942691 234.23886282 24.83576725 227.14925189 24.85596192 220.0596053 C24.87848127 211.97468419 24.88935425 203.88975971 24.89935279 195.80481493 C24.92013933 179.20317321 24.95521399 162.60159473 25 146 C30.22161372 145.31824139 35.22018625 144.87196006 40.5 144.8671875 C41.5199707 144.86575241 41.5199707 144.86575241 42.56054688 144.86428833 C43.98567804 144.86361355 45.4108124 144.86541831 46.8359375 144.86962891 C48.9948631 144.87498725 51.15358073 144.86965988 53.3125 144.86328125 C59.94686454 144.86040973 66.44183479 144.92405102 73 146 C74.19682481 155.3982625 74.11775318 164.76931425 74.07516479 174.22296715 C74.0621915 177.14367274 74.0558302 180.06433181 74.05102539 182.98506165 C74.03777271 190.2554666 74.01389049 197.52582838 73.98962402 204.79620361 C73.85620225 236.08488461 73.85620225 236.08488461 74.39453125 267.3671875 C74.44474426 269.26503242 74.44474426 269.26503242 74.49597168 271.20121765 C74.97561942 285.2959727 76.9572252 297.9572252 87.3125 308.3125 C97.4654966 314.6876374 107.96385008 316.38455048 119.8125 316.3125 C120.77373779 316.30758545 121.73497559 316.3026709 122.7253418 316.29760742 C134.49845437 316.10431308 145.97845896 314.39069946 155 306.1796875 C159.06605791 301.85950097 161.49530434 297.71997781 163 292 C163.19207031 291.3090625 163.38414062 290.618125 163.58203125 289.90625 C164.8459663 284.59590416 165.25453494 279.25784266 165.54759216 273.82034302 C165.61166957 272.6379066 165.61166957 272.6379066 165.67704147 271.43158257 C166.11410307 262.7036256 166.13319885 253.98628618 166.11352539 245.24951172 C166.11324239 243.45377606 166.11340345 241.65804028 166.1139679 239.86230469 C166.11425147 235.04946406 166.10842673 230.23664904 166.10139394 225.4238143 C166.09508633 220.37101469 166.0945508 215.31821431 166.09336853 210.26541138 C166.09027685 200.72494366 166.082093 191.18448759 166.07201904 181.64402497 C166.05868521 168.73239551 166.0533405 155.82076281 166.04751682 142.90912819 C166.03815135 122.60607676 166.01821809 102.30304989 166 82 C111.88 81.67 57.76 81.34 2 81 C2 91.23 2 101.46 2 112 C-0.97 110.35 -3.94 108.7 -7 107 C-7 106.34 -7 105.68 -7 105 C-7.68900391 104.75773682 -8.37800781 104.51547363 -9.08789062 104.26586914 C-12.51712484 102.77521024 -15.50964275 100.83269131 -18.59375 98.74609375 C-19.22172485 98.32634781 -19.84969971 97.90660187 -20.4967041 97.47413635 C-22.50072707 96.13289545 -24.50032009 94.78520497 -26.5 93.4375 C-27.8122312 92.55884322 -29.12472907 91.68058456 -30.4375 90.80273438 C-36.6321625 86.65324638 -42.7967863 82.46419353 -48.91796875 78.20703125 C-53.82723525 74.79633136 -58.77980459 71.47521236 -63.8125 68.25 C-64.49763672 67.80785156 -65.18277344 67.36570312 -65.88867188 66.91015625 C-70.56620598 63.89780662 -75.27535223 60.93781738 -80 58 C-79.6440273 55.3182423 -79.26257821 54.23015588 -77.19677734 52.41943359 C-76.02816162 51.66654053 -76.02816162 51.66654053 -74.8359375 50.8984375 C-73.53438721 50.04693115 -73.53438721 50.04693115 -72.20654297 49.17822266 C-71.27213379 48.58315918 -70.33772461 47.9880957 -69.375 47.375 C-68.42383301 46.75544434 -67.47266602 46.13588867 -66.49267578 45.49755859 C-64.56700435 44.24329357 -62.63846669 42.99341763 -60.70703125 41.74804688 C-57.07627279 39.40350949 -53.47264907 37.01989899 -49.875 34.625 C-48.26238281 33.56152344 -48.26238281 33.56152344 -46.6171875 32.4765625 C-43.63055338 30.46763127 -40.73292019 28.34934639 -37.83203125 26.21875 C-31.94581977 21.91659236 -25.90148913 17.88284446 -19.8125 13.875 C-13.06019468 9.42990872 -6.38930985 4.95764631 0 0 Z " fill="#A33E88" transform="translate(92,26)"/>
<path d="M0 0 C0.99 0.495 0.99 0.495 2 1 C2 10.9 2 20.8 2 31 C4.11171097 30.99787003 6.22342194 30.99574005 8.39912415 30.99354553 C32.26008792 30.97500398 56.11985998 31.06025381 79.98046875 31.18359375 C81.90720431 31.19347722 83.83393987 31.20336046 85.76067543 31.21324348 C93.75631124 31.25442261 101.75194393 31.29613818 109.74756908 31.33933926 C121.10825863 31.40069878 132.46895458 31.45859704 143.82968444 31.51199192 C151.89322378 31.5501618 159.95673818 31.59209265 168.02024347 31.63687855 C172.81353341 31.66340301 177.6068185 31.68826411 182.40013695 31.70907402 C186.87305584 31.72857258 191.34592518 31.75269465 195.81879997 31.78049088 C197.4615973 31.78987824 199.10440543 31.79754741 200.74721909 31.80341911 C202.97831851 31.81164661 205.20929725 31.82591076 207.44035339 31.84178162 C208.69055865 31.84823417 209.94076391 31.85468672 211.22885418 31.8613348 C214 32 214 32 215 33 C215.09600136 34.606892 215.12187889 36.21801769 215.12025452 37.82777405 C215.12231651 39.3948687 215.12231651 39.3948687 215.12442017 40.99362183 C215.12082489 42.14951813 215.11722961 43.30541443 215.11352539 44.49633789 C215.11367142 45.70592667 215.11381744 46.91551544 215.1139679 48.16175842 C215.11338893 51.48806351 215.10835973 54.81430719 215.10139394 58.1406014 C215.09515978 61.61329929 215.09455655 65.08599793 215.09336853 68.55870056 C215.0902554 75.13896193 215.08204225 81.71920676 215.07201904 88.29946083 C215.06085734 95.78906112 215.05534731 103.27866218 215.05032361 110.7682687 C215.03985962 126.17885539 215.02226053 141.58942557 215 157 C214.67 157 214.34 157 214 157 C213.02549456 151.31747234 212.86947336 145.83835532 212.90234375 140.08007812 C212.90380402 139.10828613 212.90526428 138.13649414 212.9067688 137.13525391 C212.91056213 135.03295887 212.91666526 132.93066699 212.92483521 130.8283844 C212.93766457 127.488407 212.94413218 124.14846963 212.94897461 120.80847168 C212.96230845 112.50738464 212.98641543 104.20633541 213.01037598 95.90527344 C213.0302221 88.89456895 213.04581965 81.88387917 213.05593872 74.87315369 C213.06235348 71.60587917 213.07486479 68.33866598 213.08764648 65.07141113 C213.11365818 54.33325212 212.94434708 43.70135815 212 33 C211.43952406 33.03033388 210.87904812 33.06066776 210.30158806 33.09192085 C193.70278571 33.95890683 177.13872289 34.10343644 160.52215958 34.01403427 C156.09225104 33.99047523 151.6623462 33.97753089 147.23239136 33.96633911 C134.65844789 33.9332843 122.0845775 33.89073287 109.51074219 33.82861328 C102.51768329 33.79415339 95.52467253 33.77031491 88.53153789 33.75840485 C84.12636773 33.7503158 79.72151935 33.72910647 75.31645322 33.69819999 C71.95722573 33.67851302 68.59805241 33.67836253 65.23876953 33.67529297 C64.02131546 33.6629361 62.80386139 33.65057922 61.54951477 33.6378479 C60.44553848 33.64052673 59.34156219 33.64320557 58.20413208 33.64596558 C57.24161089 33.64190138 56.2790897 33.63783718 55.2874012 33.63364983 C54.5325588 33.75454538 53.77771641 33.87544094 53 34 C52.34 34.99 51.68 35.98 51 37 C49.68 36.67 48.36 36.34 47 36 C47 35.34 47 34.68 47 34 C46.34 33.67 45.68 33.34 45 33 C44.67 33.99 44.34 34.98 44 36 C44 35.01 44 34.02 44 33 C42.329375 33.2475 42.329375 33.2475 40.625 33.5 C35.7988952 34.04894083 31.03578886 34.03932271 26.1875 34 C12.82129087 33.77771606 12.82129087 33.77771606 0 37 C0 26.77 0 16.54 0 6 C-1.32 6.33 -2.64 6.66 -4 7 C-4.67735432 8.32793575 -5.34349173 9.66163566 -6 11 C-7.91796875 12.125 -7.91796875 12.125 -10.1875 13 C-13.21830452 14.23477221 -16.05611815 15.52261669 -18.875 17.1875 C-22 19 -22 19 -25 20 C-25 20.66 -25 21.32 -25 22 C-25.99 22 -26.98 22 -28 22 C-28 23.32 -28 24.64 -28 26 C-28.495 27.485 -28.495 27.485 -29 29 C-29 28.34 -29 27.68 -29 27 C-30.65 27.99 -32.3 28.98 -34 30 C-34.495 29.01 -34.495 29.01 -35 28 C-35.48210938 28.721875 -35.96421875 29.44375 -36.4609375 30.1875 C-37.09257813 31.115625 -37.72421875 32.04375 -38.375 33 C-39.00148437 33.928125 -39.62796875 34.85625 -40.2734375 35.8125 C-40.84320313 36.534375 -41.41296875 37.25625 -42 38 C-42.66 38 -43.32 38 -44 38 C-44.33 37.34 -44.66 36.68 -45 36 C-49.32371893 38.02633069 -49.32371893 38.02633069 -53 41 C-53.64767793 43.57061311 -53.64767793 43.57061311 -54 46 C-55.98 45.67 -57.96 45.34 -60 45 C-60.31453125 45.5775 -60.6290625 46.155 -60.953125 46.75 C-61.38109375 47.4925 -61.8090625 48.235 -62.25 49 C-62.87648438 50.11375 -62.87648438 50.11375 -63.515625 51.25 C-64.00546875 51.8275 -64.4953125 52.405 -65 53 C-66.32 53 -67.64 53 -69 53 C-69 53.66 -69 54.32 -69 55 C-70.5 56.625 -70.5 56.625 -72 58 C-70.515 57.505 -70.515 57.505 -69 57 C-68.67 58.65 -68.34 60.3 -68 62 C-67.071875 62.20625 -66.14375 62.4125 -65.1875 62.625 C-62 64 -62 64 -60.125 67.125 C-59.75375 68.07375 -59.3825 69.0225 -59 70 C-62.84416731 68.60022169 -66.07817087 66.797262 -69.5 64.5625 C-72.96515753 62.30917425 -76.44352672 60.10682385 -80 58 C-79.6440273 55.3182423 -79.26257821 54.23015588 -77.19677734 52.41943359 C-76.02816162 51.66654053 -76.02816162 51.66654053 -74.8359375 50.8984375 C-73.53438721 50.04693115 -73.53438721 50.04693115 -72.20654297 49.17822266 C-71.27213379 48.58315918 -70.33772461 47.9880957 -69.375 47.375 C-68.42383301 46.75544434 -67.47266602 46.13588867 -66.49267578 45.49755859 C-64.56700435 44.24329357 -62.63846669 42.99341763 -60.70703125 41.74804688 C-57.07627279 39.40350949 -53.47264907 37.01989899 -49.875 34.625 C-48.26238281 33.56152344 -48.26238281 33.56152344 -46.6171875 32.4765625 C-43.63055338 30.46763127 -40.73292019 28.34934639 -37.83203125 26.21875 C-31.94581977 21.91659236 -25.90148913 17.88284446 -19.8125 13.875 C-13.06019468 9.42990872 -6.38930985 4.95764631 0 0 Z " fill="#6C5091" transform="translate(92,26)"/>
<path d="M0 0 C1.17350006 -0.00303635 2.34700012 -0.00607269 3.55606079 -0.00920105 C5.46722183 0.0015168 5.46722183 0.0015168 7.41699219 0.01245117 C8.75857517 0.01330834 10.10015884 0.01338911 11.44174194 0.01274109 C15.03651132 0.01389368 18.6311148 0.02825394 22.22583771 0.04568481 C24.46963278 0.055445 26.71340277 0.06126085 28.95721436 0.06567383 C46.67315296 0.100622 64.37680154 0.26167342 82.08520508 0.81283569 C97.71073902 1.29421004 113.33154117 1.3568312 128.96386719 1.36791992 C130.19727844 1.37041748 131.4306897 1.37291504 132.70147705 1.37548828 C136.2004279 1.38134927 139.69929049 1.37990873 143.19824219 1.37573242 C144.25351105 1.37771637 145.30877991 1.37970032 146.39602661 1.38174438 C147.36941986 1.37863251 148.34281311 1.37552063 149.34570312 1.37231445 C150.19324158 1.37151886 151.04078003 1.37072327 151.91400146 1.36990356 C154.15128211 1.24637546 156.04988052 0.79000893 158.21386719 0.24291992 C159.53386719 0.24291992 160.85386719 0.24291992 162.21386719 0.24291992 C162.11489891 1.97102402 162.11489891 1.97102402 162.01393127 3.73403931 C161.0665273 21.54293859 160.90719654 39.35699368 160.70861506 57.18609953 C160.65790365 61.66768772 160.60294543 66.149224 160.54847717 70.63076782 C160.44640811 79.08025205 160.34804509 87.529775 160.25108296 95.97931921 C160.1403294 105.61450599 160.02533864 115.24964082 159.91002834 124.88477397 C159.67332871 144.67076916 159.44183192 164.45682229 159.21386719 184.24291992 C158.88386719 184.24291992 158.55386719 184.24291992 158.21386719 184.24291992 C157.88386719 124.84291992 157.55386719 65.44291992 157.21386719 4.24291992 C103.09386719 3.91291992 48.97386719 3.58291992 -6.78613281 3.24291992 C-6.78613281 13.47291992 -6.78613281 23.70291992 -6.78613281 34.24291992 C-9.75613281 32.59291992 -12.72613281 30.94291992 -15.78613281 29.24291992 C-15.78613281 28.58291992 -15.78613281 27.92291992 -15.78613281 27.24291992 C-14.46613281 27.57291992 -13.14613281 27.90291992 -11.78613281 28.24291992 C-11.45613281 27.25291992 -11.12613281 26.26291992 -10.78613281 25.24291992 C-10.12613281 25.24291992 -9.46613281 25.24291992 -8.78613281 25.24291992 C-8.45613281 19.63291992 -8.12613281 14.02291992 -7.78613281 8.24291992 C-8.44613281 8.24291992 -9.10613281 8.24291992 -9.78613281 8.24291992 C-9.78613281 6.26291992 -9.78613281 4.28291992 -9.78613281 2.24291992 C-6.43226672 0.22692067 -3.88443084 -0.00539939 0 0 Z " fill="#7D4D7F" transform="translate(100.7861328125,103.757080078125)"/>
<path d="M0 0 C0.99 0 1.98 0 3 0 C2.67 4.29 2.34 8.58 2 13 C2.66 13.33 3.32 13.66 4 14 C4.33926947 16.33247761 4.67240066 18.66585471 5 21 C5.66 21.66 6.32 22.32 7 23 C7.66 23 8.32 23 9 23 C9.66 23.33 10.32 23.66 11 24 C11 26.33333333 11 28.66666667 11 31 C10.01 31 9.02 31 8 31 C8 31.66 8 32.32 8 33 C8.99 33.33 9.98 33.66 11 34 C11 36.31 11 38.62 11 41 C12.65 41.33 14.3 41.66 16 42 C16 42.99 16 43.98 16 45 C17.32 45.33 18.64 45.66 20 46 C19.690625 46.928125 19.690625 46.928125 19.375 47.875 C19.25125 48.57625 19.1275 49.2775 19 50 C20.77647928 52.15293523 20.77647928 52.15293523 23 52.375 C25 53 25 53 26.1875 54.875 C26.83464059 56.56752155 27.42698864 58.28096593 28 60 C30.82115184 61.07009208 32.90544541 61 36 61 C38 61 40 61 42 61 C43.125 64.75 43.125 64.75 42 67 C42.66 67 43.32 67 44 67 C44 67.66 44 68.32 44 69 C45.25103516 69.07347656 45.25103516 69.07347656 46.52734375 69.1484375 C53.19177565 69.59120617 59.58558597 70.07567579 66 72 C66.33 72.99 66.66 73.98 67 75 C78.92698337 76.26500469 90.8349951 76.11359939 102.8125 76.0625 C104.87304578 76.05747388 106.93359276 76.05291295 108.99414062 76.04882812 C113.99612361 76.0379131 118.99804837 76.02071004 124 76 C123.67 74.35 123.34 72.7 123 71 C124.66666667 71 126.33333333 71 128 71 C128.66 70.34 129.32 69.68 130 69 C130 69.66 130 70.32 130 71 C130.62648437 70.91621094 131.25296875 70.83242188 131.8984375 70.74609375 C133.12433594 70.59333984 133.12433594 70.59333984 134.375 70.4375 C135.59316406 70.28087891 135.59316406 70.28087891 136.8359375 70.12109375 C139 70 139 70 141 71 C141 70.34 141 69.68 141 69 C142.98 69 144.96 69 147 69 C147.33 66.69 147.66 64.38 148 62 C149.81297886 62 151.62690037 62.03214874 153.4375 62.125 C156.01305094 62.17193189 156.01305094 62.17193189 158.125 60.9375 C158.74375 60.628125 159.3625 60.31875 160 60 C160.99 60.33 161.98 60.66 163 61 C152.53704868 68.35439332 142.47875123 73.02037981 130 76 C128.77796875 76.30164063 127.5559375 76.60328125 126.296875 76.9140625 C105.62268468 81.43205949 80.503609 81.12036073 60 76 C58.87980469 75.73316406 57.75960937 75.46632813 56.60546875 75.19140625 C37.63471571 70.03007683 19.94032432 59.15222429 9.8125 41.9375 C2.95454763 28.44583348 1.02516002 14.93367432 0 0 Z " fill="#C92F6E" transform="translate(117,307)"/>
<path d="M0 0 C5.25105442 -0.02464928 10.50207545 -0.04283568 15.75317383 -0.05493164 C17.54094021 -0.05997218 19.32870245 -0.06680454 21.11645508 -0.07543945 C23.68051168 -0.0875173 26.24451397 -0.09323094 28.80859375 -0.09765625 C29.6127623 -0.10281754 30.41693085 -0.10797882 31.24546814 -0.11329651 C33.16401715 -0.11349215 35.08245368 -0.06201983 37 0 C38 1 38 1 38.12304783 3.05960178 C38.12166514 4.42984705 38.12166514 4.42984705 38.12025452 5.82777405 C38.12162918 6.87250381 38.12300385 7.91723358 38.12442017 8.99362183 C38.11902725 10.72746628 38.11902725 10.72746628 38.11352539 12.49633789 C38.11367142 13.70592667 38.11381744 14.91551544 38.1139679 16.16175842 C38.11338893 19.48806351 38.10835973 22.81430719 38.10139394 26.1406014 C38.09515978 29.61329929 38.09455655 33.08599793 38.09336853 36.55870056 C38.0902554 43.13896193 38.08204225 49.71920676 38.07201904 56.29946083 C38.06085734 63.78906112 38.05534731 71.27866218 38.05032361 78.7682687 C38.03985962 94.17885539 38.02226053 109.58942557 38 125 C37.67 125 37.34 125 37 125 C36.02549456 119.31747234 35.86947336 113.83835532 35.90234375 108.08007812 C35.90380402 107.10828613 35.90526428 106.13649414 35.9067688 105.13525391 C35.91056213 103.03295887 35.91666526 100.93066699 35.92483521 98.8283844 C35.93766457 95.488407 35.94413218 92.14846963 35.94897461 88.80847168 C35.96230845 80.50738464 35.98641543 72.20633541 36.01037598 63.90527344 C36.0302221 56.89456895 36.04581965 49.88387917 36.05593872 42.87315369 C36.06235348 39.60587917 36.07486479 36.33866598 36.08764648 33.07141113 C36.11365818 22.33325212 35.94434708 11.70135815 35 1 C34.26213257 1.03879272 33.52426514 1.07758545 32.76403809 1.11755371 C29.73891562 1.27455142 26.71325608 1.41824677 23.6875 1.5625 C22.63498047 1.61857422 21.58246094 1.67464844 20.49804688 1.73242188 C13.56594279 2.05236514 6.89089653 1.82306262 0 1 C0 0.67 0 0.34 0 0 Z " fill="#7B5187" transform="translate(269,58)"/>
<path d="M0 0 C1 3 1 3 0.0625 5.75 C-1.10957612 9.33517401 -1.14988303 12.25292435 -1 16 C-2.32 15.34 -3.64 14.68 -5 14 C-5.680625 14.7425 -5.680625 14.7425 -6.375 15.5 C-8 17 -8 17 -10 17 C-10 17.99 -10 18.98 -10 20 C-13 22 -13 22 -15.6875 21.625 C-16.450625 21.41875 -17.21375 21.2125 -18 21 C-18.495 22.485 -18.495 22.485 -19 24 C-19.67546875 24.06058594 -20.3509375 24.12117188 -21.046875 24.18359375 C-21.93890625 24.26738281 -22.8309375 24.35117187 -23.75 24.4375 C-24.63171875 24.51871094 -25.5134375 24.59992188 -26.421875 24.68359375 C-28.91691887 24.9264236 -28.91691887 24.9264236 -30.94921875 25.53515625 C-33.68938959 26.15626164 -36.25715974 26.05562013 -39.0625 26 C-42.46049499 25.93279614 -44.76097972 25.92032657 -48 27 C-50.26953125 26.66015625 -50.26953125 26.66015625 -52.8125 26.0625 C-56.62624789 25.23051107 -60.07690835 24.79352149 -64 25 C-64.33 24.01 -64.66 23.02 -65 22 C-61.2251698 21.02932938 -58.77374128 21.22420858 -55 22 C-40.20473229 23.00132042 -23.37602095 23.4086709 -11 14 C-7.24495044 10.38189083 -4.19045235 6.75127103 -2 2 C-1.34 2 -0.68 2 0 2 C0 1.34 0 0.68 0 0 Z " fill="#CA2E71" transform="translate(256,320)"/>
<path d="M0 0 C0.33 0 0.66 0 1 0 C1.00808685 1.09580887 1.01617371 2.19161774 1.02450562 3.32063293 C1.10191168 13.63582043 1.18963687 23.95087512 1.28752708 34.26588917 C1.33752293 39.56924118 1.38385267 44.87257295 1.421875 50.17602539 C1.45868626 55.29190458 1.50503485 60.40761577 1.55806351 65.52335167 C1.5766296 67.47739408 1.59172933 69.43147253 1.60334396 71.38556862 C1.62016854 74.11765459 1.64919424 76.84935391 1.68115234 79.58129883 C1.68331253 80.39337799 1.68547272 81.20545715 1.68769836 82.04214478 C1.74522471 85.87897294 1.82170678 87.73256018 4 91 C4.125 94.1875 4.125 94.1875 4 97 C3.01 97.495 3.01 97.495 2 98 C2.66 98.66 3.32 99.32 4 100 C3.67 100.99 3.34 101.98 3 103 C2.34 103 1.68 103 1 103 C0.896875 103.763125 0.79375 104.52625 0.6875 105.3125 C-0.05790616 108.22636046 -0.84458939 109.02950397 -3 111 C-3.13617322 104.13081776 -2.92285499 97.2958691 -2.5625 90.4375 C-2.50364624 89.24084717 -2.50364624 89.24084717 -2.44360352 88.02001953 C-2.12032072 82.24064143 -2.12032072 82.24064143 -1 80 C-0.87778771 77.4682761 -0.81435555 74.96221479 -0.79467773 72.42919922 C-0.78477814 71.64862152 -0.77487854 70.86804382 -0.76467896 70.06381226 C-0.73303022 67.47746845 -0.70829324 64.89110625 -0.68359375 62.3046875 C-0.66302713 60.51392126 -0.64203074 58.72315992 -0.62062073 56.93240356 C-0.56536987 52.21421257 -0.5159739 47.49597755 -0.46777344 42.77770996 C-0.4175804 37.96504793 -0.36188288 33.15245 -0.30664062 28.33984375 C-0.19902219 18.8932839 -0.09758541 9.44666844 0 0 Z " fill="#9B3B6F" transform="translate(260,208)"/>
<path d="M0 0 C0.69895386 0.00141495 1.39790771 0.0028299 2.11804199 0.00428772 C4.31832429 0.00981955 6.51849923 0.02235848 8.71875 0.03515625 C10.22395685 0.04018009 11.72916532 0.04474143 13.234375 0.04882812 C16.89586735 0.05976648 20.55729817 0.07698266 24.21875 0.09765625 C15.93940971 4.58726861 3.93767252 3.15825298 -5.3359375 3.12109375 C-6.56364868 3.11855591 -6.56364868 3.11855591 -7.81616211 3.1159668 C-9.80452933 3.11160953 -11.79289115 3.10488665 -13.78125 3.09765625 C-13.77680878 4.3062178 -13.77236755 5.51477936 -13.76779175 6.75996399 C-13.72729555 18.13459839 -13.69728961 29.50921821 -13.67762566 40.88390827 C-13.66717649 46.73212495 -13.6529966 52.58028355 -13.63037109 58.4284668 C-13.60868316 64.06944031 -13.59668992 69.71035788 -13.59149551 75.35136986 C-13.58779247 77.50640939 -13.58056163 79.66144577 -13.56978989 81.81646156 C-13.55532884 84.82863676 -13.5532698 87.84057903 -13.55419922 90.8527832 C-13.54700867 91.74901901 -13.53981812 92.64525482 -13.53240967 93.56864929 C-13.535159 94.38894623 -13.53790833 95.20924316 -13.54074097 96.05439758 C-13.53889738 96.76694356 -13.53705379 97.47948954 -13.53515434 98.21362782 C-13.78125 100.09765625 -13.78125 100.09765625 -15.78125 103.09765625 C-15.78125 69.43765625 -15.78125 35.77765625 -15.78125 1.09765625 C-10.28265939 0.41033242 -5.46437178 -0.02203376 0 0 Z " fill="#85426E" transform="translate(132.78125,170.90234375)"/>
<path d="M0 0 C0.66 0 1.32 0 2 0 C2 0.66 2 1.32 2 2 C2.66 2 3.32 2 4 2 C4.0093457 3.12792969 4.01869141 4.25585938 4.02832031 5.41796875 C4.06879342 9.68266469 4.13469685 13.94668167 4.20751953 18.2109375 C4.23540216 20.04157661 4.25677568 21.87232879 4.27099609 23.703125 C4.41298984 45.66242066 4.41298984 45.66242066 13.6328125 65.10546875 C15.20859901 67.28905863 16.08493866 69.47704516 17 72 C15.01432292 71.47916667 13.02864583 70.95833333 11.04296875 70.4375 C8.85929991 69.8952993 8.85929991 69.8952993 6 70 C6.37125 69.46375 6.7425 68.9275 7.125 68.375 C8.37170828 64.99107753 7.26375561 63.34895237 6 60 C5.57656783 58.44475228 5.18182114 56.88147807 4.8125 55.3125 C4.54373047 54.19294922 4.54373047 54.19294922 4.26953125 53.05078125 C4 51 4 51 5 48 C4.34 48 3.68 48 3 48 C2.34 47.34 1.68 46.68 1 46 C0.34 46 -0.32 46 -1 46 C-1 44.35 -1 42.7 -1 41 C0.32 41.33 1.64 41.66 3 42 C2.505 40.515 2.505 40.515 2 39 C1.91641042 36.78910055 1.89268236 34.57573922 1.90234375 32.36328125 C1.90717773 30.41518555 1.90717773 30.41518555 1.91210938 28.42773438 C1.92046469 27.05598892 1.92892963 25.68424413 1.9375 24.3125 C1.94251665 22.92903805 1.94707927 21.54557437 1.95117188 20.16210938 C1.96297471 16.77469605 1.97943981 13.38736967 2 10 C1.34 10 0.68 10 0 10 C0 6.7 0 3.4 0 0 Z " fill="#C63475" transform="translate(162,265)"/>
<path d="M0 0 C2.97 0 5.94 0 9 0 C9.33 1.32 9.66 2.64 10 4 C10.99 4 11.98 4 13 4 C13 3.34 13 2.68 13 2 C13.66 2 14.32 2 15 2 C14.67 2.99 14.34 3.98 14 5 C13.34 5 12.68 5 12 5 C12 5.66 12 6.32 12 7 C17.47621693 8.94679922 17.47621693 8.94679922 23 8 C23.33 10.31 23.66 12.62 24 15 C24.94875 15.12375 25.8975 15.2475 26.875 15.375 C30 16 30 16 32 18 C35.09926819 17.67801034 35.09926819 17.67801034 38 17 C38 19.33333333 38 21.66666667 38 24 C42.455 25.98 42.455 25.98 47 28 C46.01 28.66 45.02 29.32 44 30 C40.27684433 28.94228532 37.32191132 27.02361031 34.15625 24.83984375 C33.24536621 24.21505127 32.33448242 23.59025879 31.39599609 22.9465332 C30.44031738 22.28355225 29.48463867 21.62057129 28.5 20.9375 C27.5198291 20.26227295 26.5396582 19.5870459 25.52978516 18.89135742 C23.57744053 17.54571814 21.6264009 16.19818326 19.67675781 14.84863281 C17.39294478 13.27137704 15.10219866 11.70562681 12.8046875 10.1484375 C11.66142949 9.36983401 10.5181975 8.59119232 9.375 7.8125 C8.41335937 7.15894531 7.45171875 6.50539063 6.4609375 5.83203125 C4.0715428 4.05325964 2.04279258 2.16267477 0 0 Z " fill="#7C4E8B" transform="translate(33,96)"/>
<path d="M0 0 C45.87 0 91.74 0 139 0 C139 0.33 139 0.66 139 1 C135.5651709 1.77762772 132.41329867 2.11954747 128.89448547 2.10006714 C127.38658447 2.09562592 127.38658447 2.09562592 125.84822083 2.09109497 C124.75660141 2.08278656 123.66498199 2.07447815 122.5402832 2.06591797 C121.38209076 2.06124512 120.22389832 2.05657227 119.03060913 2.05175781 C116.51845168 2.04126352 114.00630255 2.02860355 111.49416542 2.01403427 C107.52363986 1.99203713 103.55313168 1.97765553 99.58256531 1.96633911 C88.29448007 1.9329373 77.00646996 1.89113432 65.71850586 1.82861328 C59.47892973 1.79413644 53.23940814 1.77029946 46.99974698 1.75840485 C43.69869359 1.75162403 40.39792772 1.73743002 37.09694862 1.71337509 C33.42170738 1.68704935 29.74685663 1.67901699 26.0715332 1.67529297 C24.97384109 1.6629361 23.87614899 1.65057922 22.74519348 1.6378479 C21.24998169 1.64186615 21.24998169 1.64186615 19.7245636 1.64596558 C18.42074974 1.63986928 18.42074974 1.63986928 17.0905962 1.63364983 C16.40069945 1.75454538 15.71080271 1.87544094 15 2 C14.01 3.485 14.01 3.485 13 5 C11.68 4.67 10.36 4.34 9 4 C9 3.34 9 2.68 9 2 C8.34 1.67 7.68 1.34 7 1 C6.67 1.99 6.34 2.98 6 4 C6 3.01 6 2.02 6 1 C4.02 1 2.04 1 0 1 C0 0.67 0 0.34 0 0 Z " fill="#725495" transform="translate(130,58)"/>
<path d="M0 0 C0.78375 0.04125 1.5675 0.0825 2.375 0.125 C-3.39079171 6.38840225 -11.21143474 11.35644902 -19.76171875 12.5703125 C-22.09575334 12.56365334 -24.31693173 12.46004217 -26.625 12.125 C-26.625 12.785 -26.625 13.445 -26.625 14.125 C-29.265 14.125 -31.905 14.125 -34.625 14.125 C-33.305 12.475 -31.985 10.825 -30.625 9.125 C-30.625 9.785 -30.625 10.445 -30.625 11.125 C-29.99851563 11.04121094 -29.37203125 10.95742188 -28.7265625 10.87109375 C-27.90929687 10.76925781 -27.09203125 10.66742188 -26.25 10.5625 C-25.43789062 10.45808594 -24.62578125 10.35367187 -23.7890625 10.24609375 C-21.625 10.125 -21.625 10.125 -19.625 11.125 C-19.625 10.465 -19.625 9.805 -19.625 9.125 C-17.645 9.125 -15.665 9.125 -13.625 9.125 C-13.295 6.815 -12.965 4.505 -12.625 2.125 C-10.77036523 2.125 -8.91493212 2.15963746 -7.0625 2.25 C-3.70459961 2.07779998 -3.419528 0.16283467 0 0 Z " fill="#D7266F" transform="translate(277.625,366.875)"/>
<path d="M0 0 C0 0.99 0 1.98 0 3 C-0.639375 3.61875 -1.27875 4.2375 -1.9375 4.875 C-4.27990815 7.28839022 -4.63515416 8.7163874 -5 12 C-6.36125 11.690625 -6.36125 11.690625 -7.75 11.375 C-11.1862639 10.97850801 -12.22344661 11.08513559 -15 13 C-15.474375 13.474375 -15.94875 13.94875 -16.4375 14.4375 C-18.40012218 16.40012218 -20.62524611 17.57514767 -23 19 C-24.01868662 19.98095748 -25.02351983 20.97702078 -26 22 C-26.66 22.33 -27.32 22.66 -28 23 C-28.33 23.66 -28.66 24.32 -29 25 C-29.66 24.67 -30.32 24.34 -31 24 C-30.65235335 21.24205319 -30.23635886 20.20468629 -28.1015625 18.35595703 C-27.28429687 17.82856934 -26.46703125 17.30118164 -25.625 16.7578125 C-24.72136719 16.16613281 -23.81773438 15.57445313 -22.88671875 14.96484375 C-21.93410156 14.35769531 -20.98148438 13.75054687 -20 13.125 C-19.07832031 12.52558594 -18.15664063 11.92617187 -17.20703125 11.30859375 C-15.37258251 10.11581396 -13.53536907 8.92727454 -11.6953125 7.74316406 C-7.76893155 5.20381986 -3.88225442 2.60614302 0 0 Z " fill="#6F5190" transform="translate(43,60)"/>
<path d="M0 0 C0.66 0 1.32 0 2 0 C2 0.66 2 1.32 2 2 C2.66 2 3.32 2 4 2 C4 15.2 4 28.4 4 42 C1.57795962 38.36693942 1.76697109 36.68180977 1.8046875 32.36328125 C1.81113281 31.06455078 1.81757813 29.76582031 1.82421875 28.42773438 C1.8409294 27.05598693 1.85785929 25.68424214 1.875 24.3125 C1.88503326 22.92904282 1.89415851 21.54557873 1.90234375 20.16210938 C1.92595033 16.77456548 1.95887963 13.38736928 2 10 C1.34 10 0.68 10 0 10 C0 6.7 0 3.4 0 0 Z " fill="#AF3E78" transform="translate(162,265)"/>
<path d="M0 0 C0.33 0 0.66 0 1 0 C1.0463915 9.54476112 1.08190382 19.08948328 1.10362434 28.63433266 C1.11405041 33.06664647 1.12818811 37.498883 1.15087891 41.93115234 C1.17264927 46.21053194 1.18457748 50.48983732 1.18975449 54.76926804 C1.19344271 56.39989769 1.2006449 58.03052341 1.21146011 59.66112137 C1.22603086 61.94946239 1.22797562 64.23749878 1.22705078 66.52587891 C1.231492 67.82715729 1.23593323 69.12843567 1.24050903 70.46914673 C1.00130859 73.98078886 0.27160754 76.73282322 -1 80 C-1.33 80 -1.66 80 -2 80 C-2.04241723 77.66705225 -2.04092937 75.33297433 -2 73 C-1.505 72.505 -1.505 72.505 -1 72 C-0.87588418 69.76142644 -0.82196977 67.51894516 -0.79467773 65.27709961 C-0.78477814 64.5746965 -0.77487854 63.8722934 -0.76467896 63.14860535 C-0.73297878 60.81655296 -0.70827312 58.48448016 -0.68359375 56.15234375 C-0.66303156 54.53950965 -0.64203529 52.92668104 -0.62062073 51.31385803 C-0.56532408 47.06090725 -0.51594844 42.80790723 -0.46777344 38.55487061 C-0.41761369 34.21817625 -0.36189885 29.88155373 -0.30664062 25.54492188 C-0.19896625 17.03000859 -0.09754205 8.51503535 0 0 Z " fill="#BB3A75" transform="translate(305,255)"/>
<path d="M0 0 C11.88 0 23.76 0 36 0 C36 0.66 36 1.32 36 2 C32.90235347 3.03254884 30.73851213 3.12908904 27.4921875 3.1328125 C26.42355469 3.13410156 25.35492188 3.13539062 24.25390625 3.13671875 C23.13886719 3.13285156 22.02382812 3.12898438 20.875 3.125 C19.75222656 3.12886719 18.62945312 3.13273437 17.47265625 3.13671875 C15.87357422 3.13478516 15.87357422 3.13478516 14.2421875 3.1328125 C13.2610498 3.13168457 12.27991211 3.13055664 11.26904297 3.12939453 C9 3 9 3 8 2 C6.65252916 1.76924918 5.29622435 1.58846937 3.9375 1.4375 C2.638125 1.293125 1.33875 1.14875 0 1 C0 0.67 0 0.34 0 0 Z " fill="#6B5486" transform="translate(94,57)"/>
<path d="M0 0 C0.99 0.33 1.98 0.66 3 1 C0.58365786 8.73229484 -5.36261572 15.48384162 -12 20 C-12.66 20 -13.32 20 -14 20 C-13.649375 19.38125 -13.29875 18.7625 -12.9375 18.125 C-12.628125 17.42375 -12.31875 16.7225 -12 16 C-12.33 15.34 -12.66 14.68 -13 14 C-12.05125 13.5875 -11.1025 13.175 -10.125 12.75 C-6.96834033 10.98227058 -6.04932994 10.35785582 -5 7 C-5 6.01 -5 5.02 -5 4 C-3.35 3.34 -1.7 2.68 0 2 C0 1.34 0 0.68 0 0 Z " fill="#C73370" transform="translate(294,347)"/>
<path d="M0 0 C0.99 0 1.98 0 3 0 C3 10.56 3 21.12 3 32 C0.03 30.35 -2.94 28.7 -6 27 C-6 26.34 -6 25.68 -6 25 C-4.68 25.33 -3.36 25.66 -2 26 C-1.67 25.01 -1.34 24.02 -1 23 C-0.34 23 0.32 23 1 23 C1.33 17.39 1.66 11.78 2 6 C1.34 6 0.68 6 0 6 C0 4.02 0 2.04 0 0 Z " fill="#7E5386" transform="translate(91,106)"/>
<path d="M0 0 C0 0.66 0 1.32 0 2 C-2.01700159 2.82196606 -4.03881369 3.63213217 -6.0625 4.4375 C-7.75052734 5.11619141 -7.75052734 5.11619141 -9.47265625 5.80859375 C-15.4575101 7.83005601 -21.40176814 8.13980874 -27.68359375 8.31640625 C-28.73414696 8.3475779 -28.73414696 8.3475779 -29.80592346 8.37937927 C-32.01636106 8.44412465 -34.22690485 8.50340608 -36.4375 8.5625 C-37.94727607 8.60575681 -39.45704188 8.64937323 -40.96679688 8.69335938 C-44.64442196 8.79972748 -48.32216291 8.90120002 -52 9 C-52.33 8.01 -52.66 7.02 -53 6 C-49.2251698 5.02932938 -46.77374128 5.22420858 -43 6 C-27.62518616 7.04054318 -13.73218636 0 0 0 Z " fill="#B74374" transform="translate(244,336)"/>
<path d="M0 0 C0.66 0 1.32 0 2 0 C4.29013653 3.4352048 4.17842973 4.985331 4 9 C3.01 9.495 3.01 9.495 2 10 C2.66 10.66 3.32 11.32 4 12 C3.67 12.99 3.34 13.98 3 15 C2.34 15 1.68 15 1 15 C0.896875 15.763125 0.79375 16.52625 0.6875 17.3125 C-0.04364039 20.17059424 -0.76951913 21.15742885 -3 23 C-3.042721 21.33388095 -3.04063832 19.66617115 -3 18 C-2.67 17.67 -2.34 17.34 -2 17 C-1.78933632 14.71195833 -1.63135159 12.41896178 -1.5 10.125 C-1.10918114 3.32754342 -1.10918114 3.32754342 0 0 Z " fill="#C73177" transform="translate(260,296)"/>
<path d="M0 0 C2.24734928 3.59264833 2.23200508 6.55142073 2.1953125 10.734375 C2.18886719 12.02988281 2.18242188 13.32539063 2.17578125 14.66015625 C2.15907193 16.02344019 2.14214206 17.38672144 2.125 18.75 C2.1149634 20.12889985 2.10583873 21.50780665 2.09765625 22.88671875 C2.07408093 26.25798882 2.0411727 29.62890636 2 33 C1.01 33 0.02 33 -1 33 C-1.02473064 28.78247482 -1.04287453 24.56498814 -1.05493164 20.34741211 C-1.05995842 18.91283432 -1.06678079 17.47826164 -1.07543945 16.04370117 C-1.08757752 13.98094418 -1.09324486 11.91825496 -1.09765625 9.85546875 C-1.10289307 8.61434326 -1.10812988 7.37321777 -1.11352539 6.09448242 C-1 3 -1 3 0 0 Z " fill="#AE386E" transform="translate(118,271)"/>
<path d="M0 0 C9.9 0 19.8 0 30 0 C25.91359839 2.04320081 22.87085025 2.42552007 18.4375 2.625 C17.37982422 2.68192017 17.37982422 2.68192017 16.30078125 2.73999023 C10.53342765 3.0290133 4.77394179 3.11009635 -1 3 C-0.67 2.01 -0.34 1.02 0 0 Z " fill="#5B3152" transform="translate(127,171)"/>
<path d="M0 0 C0.33 0 0.66 0 1 0 C1.05441656 1.89551022 1.09298035 3.7914792 1.125 5.6875 C1.14820313 6.74324219 1.17140625 7.79898437 1.1953125 8.88671875 C0.9949905 12.07985145 0.17623188 14.0594203 -1 17 C-1.35923218 20.6739655 -1.50323066 24.32785882 -1.65625 28.015625 C-1.7696875 29.00046875 -1.883125 29.9853125 -2 31 C-2.66 31.33 -3.32 31.66 -4 32 C-3.86157705 28.04137069 -3.71300994 24.08318673 -3.5625 20.125 C-3.52318359 18.99707031 -3.48386719 17.86914062 -3.44335938 16.70703125 C-3.40146484 15.63066406 -3.35957031 14.55429687 -3.31640625 13.4453125 C-3.27974854 12.45031738 -3.24309082 11.45532227 -3.20532227 10.43017578 C-3 8 -3 8 -2 6 C-1.34 6 -0.68 6 0 6 C0 4.02 0 2.04 0 0 Z " fill="#B23972" transform="translate(261,282)"/>
<path d="M0 0 C0.99 0.33 1.98 0.66 3 1 C1.25 4 1.25 4 -1 7 C-2.32 7 -3.64 7 -5 7 C-5 7.66 -5 8.32 -5 9 C-6.3125 10.625 -6.3125 10.625 -8 12 C-11 12 -11 12 -14 10 C-13.01 9.34 -12.02 8.68 -11 8 C-10.21625 7.319375 -9.4325 6.63875 -8.625 5.9375 C-5.94197561 3.95717247 -4.26767122 3.37344814 -1 3 C-0.67 2.01 -0.34 1.02 0 0 Z " fill="#774E98" transform="translate(28,72)"/>
<path d="M0 0 C1 3 1 3 0.0625 5.75 C-1.10957612 9.33517401 -1.14988303 12.25292435 -1 16 C-1.99 15.67 -2.98 15.34 -4 15 C-4.6875 12.9375 -4.6875 12.9375 -5 11 C-6.65 12.65 -8.3 14.3 -10 16 C-10.66 15.67 -11.32 15.34 -12 15 C-11.44570312 14.39671875 -10.89140625 13.7934375 -10.3203125 13.171875 C-9.59585938 12.37265625 -8.87140625 11.5734375 -8.125 10.75 C-7.04605469 9.56664062 -7.04605469 9.56664062 -5.9453125 8.359375 C-4.23064517 6.27973832 -3.07019127 4.45580733 -2 2 C-1.34 2 -0.68 2 0 2 C0 1.34 0 0.68 0 0 Z " fill="#C33673" transform="translate(256,320)"/>
<path d="M0 0 C1 3 1 3 0.00390625 5.48046875 C-0.47175781 6.37378906 -0.94742187 7.26710938 -1.4375 8.1875 C-1.91058594 9.08855469 -2.38367188 9.98960937 -2.87109375 10.91796875 C-3.24363281 11.60503906 -3.61617188 12.29210937 -4 13 C-4.99 12.01 -5.98 11.02 -7 10 C-6.649375 9.2575 -6.29875 8.515 -5.9375 7.75 C-4.95490707 4.8677274 -4.9673198 3.78823655 -6 1 C-4.02 0.67 -2.04 0.34 0 0 Z " fill="#D42A73" transform="translate(302,335)"/>
<path d="M0 0 C0.99 0 1.98 0 3 0 C2.67 4.29 2.34 8.58 2 13 C2.66 13.33 3.32 13.66 4 14 C4.33926947 16.33247761 4.67240066 18.66585471 5 21 C5.66 21.66 6.32 22.32 7 23 C6.96712417 25.72869407 6.43602229 28.2966618 6 31 C0.86933412 21.71593794 0.45062497 10.36437429 0 0 Z " fill="#BC356A" transform="translate(117,307)"/>
<path d="M0 0 C0.33 9.24 0.66 18.48 1 28 C-1 26 -1 26 -1.22705078 24.12060547 C-1.21657715 23.37697754 -1.20610352 22.63334961 -1.1953125 21.8671875 C-1.18886719 21.06152344 -1.18242187 20.25585938 -1.17578125 19.42578125 C-1.15902344 18.58402344 -1.14226562 17.74226563 -1.125 16.875 C-1.11597656 16.02550781 -1.10695312 15.17601562 -1.09765625 14.30078125 C-1.07405647 12.20040116 -1.03818483 10.10016556 -1 8 C-1.99 8 -2.98 8 -4 8 C-4.1875 5.125 -4.1875 5.125 -4 2 C-1 0 -1 0 0 0 Z " fill="#AC4179" transform="translate(164,239)"/>
<path d="M0 0 C5.19209404 -0.21192221 9.126739 0.4087311 14 2 C14.33 3.32 14.66 4.64 15 6 C14.01 6.33 13.02 6.66 12 7 C11.34 6.34 10.68 5.68 10 5 C8.14516546 4.39286197 6.26578615 3.85868948 4.375 3.375 C3.37210938 3.11460937 2.36921875 2.85421875 1.3359375 2.5859375 C0.56507813 2.39257812 -0.20578125 2.19921875 -1 2 C-0.67 1.34 -0.34 0.68 0 0 Z " fill="#DE1F6A" transform="translate(169,377)"/>
<path d="M0 0 C0 1.32 0 2.64 0 4 C-1.98 3.34 -3.96 2.68 -6 2 C-6.33 2.66 -6.66 3.32 -7 4 C-11.62 3.34 -16.24 2.68 -21 2 C-21 1.67 -21 1.34 -21 1 C-13.96094956 0.06145994 -7.09727428 -0.10808032 0 0 Z " fill="#944586" transform="translate(165,172)"/>
<path d="M0 0 C0.66 0.33 1.32 0.66 2 1 C2 10.9 2 20.8 2 31 C1.67 31 1.34 31 1 31 C0.67 22.09 0.34 13.18 0 4 C-1.32 3.67 -2.64 3.34 -4 3 C-2.68 2.01 -1.36 1.02 0 0 Z " fill="#635285" transform="translate(92,26)"/>
<path d="M0 0 C2.97 0.99 5.94 1.98 9 3 C8.67 3.99 8.34 4.98 8 6 C4 6 4 6 2.25 4.5 C1.8375 4.005 1.425 3.51 1 3 C1 3.99 1 4.98 1 6 C0.01 6 -0.98 6 -2 6 C-1.125 1.125 -1.125 1.125 0 0 Z " fill="#D42973" transform="translate(181,338)"/>
<path d="M0 0 C0.99 0.33 1.98 0.66 3 1 C3 2.65 3 4.3 3 6 C-0.71599191 6.20086443 -1.77208445 6.1519437 -5 4 C-5 3.34 -5 2.68 -5 2 C-3.68 2.33 -2.36 2.66 -1 3 C-0.67 2.01 -0.34 1.02 0 0 Z " fill="#854A8C" transform="translate(90,129)"/>
<path d="M0 0 C0.33 0.99 0.66 1.98 1 3 C-2.75 6.875 -2.75 6.875 -5 8 C-5.33 8.66 -5.66 9.32 -6 10 C-6.66 9.67 -7.32 9.34 -8 9 C-7.61479436 6.46089803 -7.29902057 5.27248877 -5.37109375 3.515625 C-4.73300781 3.09796875 -4.09492188 2.6803125 -3.4375 2.25 C-2.79683594 1.82203125 -2.15617187 1.3940625 -1.49609375 0.953125 C-1.00238281 0.63859375 -0.50867188 0.3240625 0 0 Z " fill="#654B7A" transform="translate(20,75)"/>
<path d="M0 0 C1.64767247 0.28109113 3.29313145 0.57518526 4.9375 0.875 C5.85402344 1.03742187 6.77054687 1.19984375 7.71484375 1.3671875 C8.46894531 1.57601562 9.22304687 1.78484375 10 2 C10.33 2.66 10.66 3.32 11 4 C3.57142857 6.14285714 3.57142857 6.14285714 0 7 C0 4.69 0 2.38 0 0 Z " fill="#705097" transform="translate(92,56)"/>
<path d="M0 0 C0 3 0 3 -1.42578125 4.640625 C-2.04839844 5.17171875 -2.67101563 5.7028125 -3.3125 6.25 C-4.23482422 7.06210938 -4.23482422 7.06210938 -5.17578125 7.890625 C-5.77777344 8.25671875 -6.37976562 8.6228125 -7 9 C-7.99 8.67 -8.98 8.34 -10 8 C-6.97727468 4.74475735 -3.74281699 2.38179263 0 0 Z " fill="#6A4F85" transform="translate(43,60)"/>
<path d="M0 0 C0.66 0 1.32 0 2 0 C2 0.66 2 1.32 2 2 C2.66 2 3.32 2 4 2 C4 4.31 4 6.62 4 9 C2.68 9.33 1.36 9.66 0 10 C0 6.7 0 3.4 0 0 Z " fill="#CC2B5E" transform="translate(162,265)"/>
<path d="M0 0 C1.21386936 3.64160808 0.6674695 4.33165469 -0.9375 7.6875 C-1.31777344 8.49574219 -1.69804687 9.30398438 -2.08984375 10.13671875 C-2.39019531 10.75160156 -2.69054687 11.36648438 -3 12 C-4.0516399 8.84508031 -3.98032423 7.96644412 -3.1875 4.875 C-3.01605469 4.17117188 -2.84460938 3.46734375 -2.66796875 2.7421875 C-2 1 -2 1 0 0 Z " fill="#BD386E" transform="translate(302,335)"/>
<path d="M0 0 C2.475 0.495 2.475 0.495 5 1 C5 1.66 5 2.32 5 3 C5.9590625 3.1546875 5.9590625 3.1546875 6.9375 3.3125 C7.618125 3.539375 8.29875 3.76625 9 4 C9.33 4.99 9.66 5.98 10 7 C5.56541027 5.6062718 3.12621626 3.39417765 0 0 Z " fill="#BB316B" transform="translate(140,364)"/>
<path d="M0 0 C0.66 0.33 1.32 0.66 2 1 C2.33 1.99 2.66 2.98 3 4 C2.67 4.66 2.34 5.32 2 6 C0.35 5.67 -1.3 5.34 -3 5 C-1.125 1.125 -1.125 1.125 0 0 Z " fill="#DC216F" transform="translate(157,368)"/>
<path d="M0 0 C1.98362069 2.91708924 1.9876191 4.12380904 1.625 7.75 C1.41875 8.8225 1.2125 9.895 1 11 C0.34 11 -0.32 11 -1 11 C-1.125 3.375 -1.125 3.375 0 0 Z " fill="#AA3F74" transform="translate(118,271)"/>
<path d="M0 0 C1.43088528 2.86177057 0.59991697 4.93375773 0 8 C-0.99 8 -1.98 8 -3 8 C-3.1875 5.125 -3.1875 5.125 -3 2 C-2.01 1.34 -1.02 0.68 0 0 Z " fill="#B63C81" transform="translate(163,239)"/>
<path d="M0 0 C2.64 0 5.28 0 8 0 C8 1.32 8 2.64 8 4 C7.05125 3.649375 6.1025 3.29875 5.125 2.9375 C2.12939828 1.64973223 2.12939828 1.64973223 0 3 C0 2.01 0 1.02 0 0 Z " fill="#8A4C7E" transform="translate(157,172)"/>
<path d="M0 0 C0.33 0.66 0.66 1.32 1 2 C1.99 2 2.98 2 4 2 C4 2.99 4 3.98 4 5 C1.69 5 -0.62 5 -3 5 C-2.01 3.35 -1.02 1.7 0 0 Z " fill="#DE1E6D" transform="translate(246,376)"/>
<path d="M0 0 C-1.62339805 1.70884005 -3.29319053 3.37446717 -5 5 C-5.66 5 -6.32 5 -7 5 C-7 3.68 -7 2.36 -7 1 C-4.53721199 -0.231394 -2.7204945 -0.07159196 0 0 Z " fill="#CD2D73" transform="translate(280,367)"/>
<path d="M0 0 C1.32 0 2.64 0 4 0 C4.33 0.99 4.66 1.98 5 3 C3.35 3.33 1.7 3.66 0 4 C0 2.68 0 1.36 0 0 Z " fill="#D42B72" transform="translate(139,360)"/>
<path d="M0 0 C0 0.66 0 1.32 0 2 C-0.66 2 -1.32 2 -2 2 C-2 3.32 -2 4.64 -2 6 C-3.32 5.34 -4.64 4.68 -6 4 C-2.25 0 -2.25 0 0 0 Z " fill="#DC2374" transform="translate(294,349)"/>
<path d="M0 0 C1.73662334 3.22515763 2.8905928 6.51329166 4 10 C3.34 10 2.68 10 2 10 C-0.4294516 6.3558226 -0.16179575 4.28758728 0 0 Z " fill="#B54172" transform="translate(168,317)"/>
<path d="M0 0 C2.875 0.25 2.875 0.25 6 1 C7.375 3.0625 7.375 3.0625 8 5 C4.62496331 3.8141763 2.35277269 2.72426311 0 0 Z " fill="#6E4F7E" transform="translate(25,91)"/>
<path d="M0 0 C0.66 0.33 1.32 0.66 2 1 C1.25 2.9375 1.25 2.9375 0 5 C-2.125 5.75 -2.125 5.75 -4 6 C-2.84826645 3.53199953 -1.95216435 1.95216435 0 0 Z " fill="#67509C" transform="translate(86,32)"/>
</svg>
